<svg xmlns="http://www.w3.org/2000/svg" width="30" viewBox="0 0 30 30" height="30" version="1.0"><defs><clipPath id="a"><path d="M 6.375 5.125 L 24.140625 5.125 L 24.140625 20 L 6.375 20 Z M 6.375 5.125"/></clipPath><clipPath id="b"><path d="M 11 19 L 15 19 L 15 22.890625 L 11 22.890625 Z M 11 19"/></clipPath><clipPath id="c"><path d="M 10 18 L 16 18 L 16 22.890625 L 10 22.890625 Z M 10 18"/></clipPath><clipPath id="d"><path d="M 19 19 L 23 19 L 23 22.890625 L 19 22.890625 Z M 19 19"/></clipPath><clipPath id="e"><path d="M 18 18 L 24 18 L 24 22.890625 L 18 22.890625 Z M 18 18"/></clipPath></defs><path fill="#7ED957" d="M 24.542969 2.902344 L 24.546875 2.90625 L 24.546875 2.902344 L 24.542969 2.902344 M 3.894531 23.550781 L 3.894531 23.554688 L 3.898438 23.554688 L 3.894531 23.550781"/><path fill="#7ED957" d="M 26.105469 4.464844 L 26.105469 23.554688 L 24.542969 25.113281 L 5.457031 25.113281 L 3.894531 23.550781 L 3.894531 4.464844 L 5.457031 2.902344 L 24.542969 2.902344 L 26.105469 4.464844"/><path fill="#03342D" d="M 22.464844 15.890625 L 11.378906 15.890625 L 10.269531 9.429688 L 23.574219 9.429688 Z M 22.464844 15.890625"/><g clip-path="url(#a)"><path fill="#03342D" d="M 23.566406 18.585938 L 11.367188 18.585938 C 10.761719 18.585938 10.269531 18.105469 10.269531 17.515625 C 10.269531 16.929688 10.769531 16.429688 11.378906 16.429688 L 22.464844 16.429688 C 22.738281 16.429688 22.96875 16.242188 23.011719 15.980469 L 24.121094 9.519531 C 24.148438 9.363281 24.101562 9.203125 23.996094 9.082031 C 23.890625 8.960938 23.738281 8.894531 23.574219 8.894531 L 10.722656 8.894531 L 10.144531 5.574219 C 10.101562 5.320312 9.875 5.148438 9.621094 5.136719 C 9.613281 5.132812 9.609375 5.125 9.597656 5.125 L 6.941406 5.125 C 6.636719 5.125 6.386719 5.367188 6.386719 5.664062 C 6.386719 5.960938 6.636719 6.199219 6.941406 6.199219 L 9.128906 6.199219 L 10.738281 15.46875 C 9.828125 15.734375 9.160156 16.546875 9.160156 17.515625 C 9.160156 18.699219 10.152344 19.660156 11.367188 19.660156 L 23.566406 19.660156 C 23.871094 19.660156 24.121094 19.421875 24.121094 19.121094 C 24.121094 18.824219 23.871094 18.585938 23.566406 18.585938 Z M 22.367188 13.199219 L 20.53125 13.199219 L 20.683594 12.125 L 22.550781 12.125 Z M 19.414062 13.199219 L 17.476562 13.199219 L 17.476562 12.125 L 19.566406 12.125 Z M 16.367188 13.199219 L 14.429688 13.199219 L 14.277344 12.125 L 16.367188 12.125 Z M 13.3125 13.199219 L 11.476562 13.199219 L 11.292969 12.125 L 13.160156 12.125 Z M 11.847656 15.355469 L 11.664062 14.277344 L 13.460938 14.277344 L 13.613281 15.355469 Z M 14.734375 15.355469 L 14.582031 14.277344 L 16.367188 14.277344 L 16.367188 15.355469 Z M 17.476562 15.355469 L 17.476562 14.277344 L 19.261719 14.277344 L 19.109375 15.355469 Z M 20.230469 15.355469 L 20.382812 14.277344 L 22.179688 14.277344 L 21.996094 15.355469 Z M 22.921875 9.96875 L 22.734375 11.046875 L 20.835938 11.046875 L 20.988281 9.96875 Z M 19.867188 9.96875 L 19.714844 11.046875 L 17.476562 11.046875 L 17.476562 9.96875 Z M 16.367188 9.96875 L 16.367188 11.046875 L 14.125 11.046875 L 13.976562 9.96875 Z M 12.855469 9.96875 L 13.007812 11.046875 L 11.109375 11.046875 L 10.921875 9.96875 Z M 12.855469 9.96875"/></g><g clip-path="url(#b)"><path fill="#03342D" d="M 14.703125 20.738281 C 14.703125 20.953125 14.660156 21.160156 14.578125 21.355469 C 14.492188 21.554688 14.371094 21.730469 14.21875 21.878906 C 14.0625 22.03125 13.882812 22.148438 13.675781 22.230469 C 13.472656 22.3125 13.261719 22.355469 13.039062 22.355469 C 12.820312 22.355469 12.609375 22.3125 12.402344 22.230469 C 12.199219 22.148438 12.019531 22.03125 11.863281 21.878906 C 11.707031 21.730469 11.589844 21.554688 11.503906 21.355469 C 11.417969 21.160156 11.378906 20.953125 11.378906 20.738281 C 11.378906 20.523438 11.417969 20.316406 11.503906 20.121094 C 11.589844 19.921875 11.707031 19.746094 11.863281 19.597656 C 12.019531 19.445312 12.199219 19.328125 12.402344 19.246094 C 12.609375 19.164062 12.820312 19.121094 13.039062 19.121094 C 13.261719 19.121094 13.472656 19.164062 13.675781 19.246094 C 13.882812 19.328125 14.0625 19.445312 14.21875 19.597656 C 14.371094 19.746094 14.492188 19.921875 14.578125 20.121094 C 14.660156 20.316406 14.703125 20.523438 14.703125 20.738281 Z M 14.703125 20.738281"/></g><g clip-path="url(#c)"><path fill="#03342D" d="M 13.039062 22.890625 C 11.816406 22.890625 10.824219 21.925781 10.824219 20.738281 C 10.824219 19.550781 11.816406 18.585938 13.039062 18.585938 C 14.265625 18.585938 15.257812 19.550781 15.257812 20.738281 C 15.257812 21.925781 14.265625 22.890625 13.039062 22.890625 Z M 13.039062 19.660156 C 12.429688 19.660156 11.933594 20.144531 11.933594 20.738281 C 11.933594 21.332031 12.429688 21.816406 13.039062 21.816406 C 13.652344 21.816406 14.148438 21.332031 14.148438 20.738281 C 14.148438 20.144531 13.652344 19.660156 13.039062 19.660156 Z M 13.039062 19.660156"/></g><g clip-path="url(#d)"><path fill="#03342D" d="M 22.464844 20.738281 C 22.464844 20.953125 22.421875 21.160156 22.339844 21.355469 C 22.253906 21.554688 22.132812 21.730469 21.980469 21.878906 C 21.824219 22.03125 21.644531 22.148438 21.4375 22.230469 C 21.234375 22.3125 21.023438 22.355469 20.800781 22.355469 C 20.582031 22.355469 20.371094 22.3125 20.167969 22.230469 C 19.960938 22.148438 19.78125 22.03125 19.625 21.878906 C 19.46875 21.730469 19.351562 21.554688 19.265625 21.355469 C 19.179688 21.160156 19.140625 20.953125 19.140625 20.738281 C 19.140625 20.523438 19.179688 20.316406 19.265625 20.121094 C 19.351562 19.921875 19.46875 19.746094 19.625 19.597656 C 19.78125 19.445312 19.960938 19.328125 20.167969 19.246094 C 20.371094 19.164062 20.582031 19.121094 20.800781 19.121094 C 21.023438 19.121094 21.234375 19.164062 21.4375 19.246094 C 21.644531 19.328125 21.824219 19.445312 21.980469 19.597656 C 22.132812 19.746094 22.253906 19.921875 22.339844 20.121094 C 22.421875 20.316406 22.464844 20.523438 22.464844 20.738281 Z M 22.464844 20.738281"/></g><g clip-path="url(#e)"><path fill="#03342D" d="M 20.800781 22.890625 C 19.578125 22.890625 18.585938 21.925781 18.585938 20.738281 C 18.585938 19.550781 19.578125 18.585938 20.800781 18.585938 C 22.027344 18.585938 23.019531 19.550781 23.019531 20.738281 C 23.019531 21.925781 22.027344 22.890625 20.800781 22.890625 Z M 20.800781 19.660156 C 20.191406 19.660156 19.695312 20.144531 19.695312 20.738281 C 19.695312 21.332031 20.191406 21.816406 20.800781 21.816406 C 21.414062 21.816406 21.910156 21.332031 21.910156 20.738281 C 21.910156 20.144531 21.414062 19.660156 20.800781 19.660156 Z M 20.800781 19.660156"/></g></svg>